<?xml version="1.0" encoding="utf-8" ?>
<svg baseProfile="full" height="100%" version="1.1" width="100%" xmlns="http://www.w3.org/2000/svg" xmlns:ev="http://www.w3.org/2001/xml-events" xmlns:xlink="http://www.w3.org/1999/xlink"><defs /><line stroke="black" x1="120" x2="380" y1="100" y2="360" /><line stroke="black" x1="240" x2="240" y1="500" y2="100" /><line stroke="black" x1="380" x2="100" y1="100" y2="380" /><line stroke="black" x1="200" x2="200" y1="500" y2="100" /><line stroke="black" x1="100" x2="380" y1="210" y2="490" /><line stroke="black" x1="100" x2="380" y1="470" y2="190" /><line stroke="black" x1="210" x2="210" y1="500" y2="100" /><line stroke="black" x1="110" x2="380" y1="500" y2="230" /><line stroke="black" x1="350" x2="100" y1="500" y2="250" /><line stroke="black" x1="250" x2="250" y1="500" y2="100" /><line stroke="black" x1="100" x2="380" y1="210" y2="490" /><line stroke="black" x1="240" x2="240" y1="500" y2="100" /><line stroke="black" x1="100" x2="380" y1="460" y2="180" /><line stroke="black" x1="280" x2="280" y1="500" y2="100" /><line stroke="black" x1="100" x2="380" y1="200" y2="200" /><line stroke="black" x1="100" x2="380" y1="500" y2="500" /><line stroke="black" x1="100" x2="380" y1="100" y2="100" /><line stroke="black" x1="100" x2="100" y1="500" y2="100" /><line stroke="black" x1="380" x2="380" y1="500" y2="100" /><text x="100" y="550">fat_tangramcat</text></svg>